<?xml version="1.0" encoding="UTF-8" standalone="no"?>
<!-- Generator: Adobe Illustrator 16.0.4, SVG Export Plug-In . SVG Version: 6.00 Build 0)  -->

<svg
   xmlns:dc="http://purl.org/dc/elements/1.1/"
   xmlns:cc="http://creativecommons.org/ns#"
   xmlns:rdf="http://www.w3.org/1999/02/22-rdf-syntax-ns#"
   xmlns:svg="http://www.w3.org/2000/svg"
   xmlns="http://www.w3.org/2000/svg"
   xmlns:sodipodi="http://sodipodi.sourceforge.net/DTD/sodipodi-0.dtd"
   xmlns:inkscape="http://www.inkscape.org/namespaces/inkscape"
   version="1.1"
   id="logo"
   x="0px"
   y="0px"
   width="240px"
   height="50.001px"
   viewBox="0 0 240 50.001"
   enable-background="new 0 0 240 50.001"
   xml:space="preserve"
   inkscape:version="0.48.5 r10040"
   sodipodi:docname="logo.svg"><metadata
   id="metadata3077"><rdf:RDF><cc:Work
       rdf:about=""><dc:format>image/svg+xml</dc:format><dc:type
         rdf:resource="http://purl.org/dc/dcmitype/StillImage" /></cc:Work></rdf:RDF></metadata><defs
   id="defs3075" /><sodipodi:namedview
   pagecolor="#ffffff"
   bordercolor="#666666"
   borderopacity="1"
   objecttolerance="10"
   gridtolerance="10"
   guidetolerance="10"
   inkscape:pageopacity="0"
   inkscape:pageshadow="2"
   inkscape:window-width="1280"
   inkscape:window-height="962"
   id="namedview3073"
   showgrid="false"
   inkscape:zoom="2.6973729"
   inkscape:cx="150.56838"
   inkscape:cy="3.3584146"
   inkscape:window-x="-8"
   inkscape:window-y="-8"
   inkscape:window-maximized="1"
   inkscape:current-layer="logo" />


<text
   xml:space="preserve"
   style="font-size:35.4066925px;font-style:normal;font-variant:normal;font-weight:300;font-stretch:normal;line-height:125%;letter-spacing:0px;word-spacing:0px;fill:#555555;fill-opacity:1;stroke:none;font-family:Orbitron;-inkscape-font-specification:Orbitron Light"
   x="48.082962"
   y="34.490921"
   id="text3079"
   sodipodi:linespacing="125%"
   transform="scale(1.0470779,0.95503878)"><tspan
     sodipodi:role="line"
     id="tspan3081"
     x="48.082962"
     y="34.490921"
     style="font-size:28px">player.web</tspan></text>




<path
   style="fill:#555555;fill-opacity:1"
   d="m 25.675352,9.7482328 c -8.935179,0 -16.1874998,7.2210712 -16.1874998,16.1562502 0,8.93518 7.2523208,16.1875 16.1874998,16.1875 8.935179,0 16.15625,-7.25232 16.15625,-16.1875 0,-8.935179 -7.221071,-16.1562502 -16.15625,-16.1562502 z m -0.03125,4.4375002 c 6.46469,0 11.6875,5.25406 11.6875,11.71875 0,6.46469 -5.22281,11.6875 -11.6875,11.6875 -6.46469,0 -11.71875,-5.22281 -11.71875,-11.6875 0,-6.46469 5.25406,-11.71875 11.71875,-11.71875 z"
   id="path3722"
   inkscape:connector-curvature="0" /><path
   style="fill:#555555;fill-opacity:1;stroke:none"
   d="m 39.152741,18.014579 3.049398,-0.473509 1.250064,2.992577 -2.405426,1.57205 z"
   id="path4506"
   inkscape:connector-curvature="0" /><path
   style="fill:#555555;fill-opacity:1;stroke:none"
   d="m 41.222851,23.526239 2.999106,0.726912 0.01249,3.24315 -2.823464,0.534294 z"
   id="path4506-1"
   inkscape:connector-curvature="0" /><path
   style="fill:#555555;fill-opacity:1;stroke:none"
   d="m 40.898004,29.801506 2.465281,1.856186 -1.274091,2.982421 -2.80396,-0.62867 z"
   id="path4506-1-7"
   inkscape:connector-curvature="0" /><path
   style="fill:#555555;fill-opacity:1;stroke:none"
   d="m 38.353825,35.123753 1.572951,2.65497 -2.313594,2.27276 -2.353457,-1.64883 z"
   id="path4506-1-7-4"
   inkscape:connector-curvature="0" /><path
   style="fill:#555555;fill-opacity:1;stroke:none"
   d="m 33.660727,39.393503 0.522165,3.04145 -2.97222,1.29772 -1.610279,-2.38001 z"
   id="path4506-1-7-4-0"
   inkscape:connector-curvature="0" /><path
   style="fill:#555555;fill-opacity:1;stroke:none"
   d="m 28.089018,41.448593 -0.803052,2.97962 -3.242414,-0.0701 -0.462219,-2.83615 z"
   id="path4506-1-7-4-0-9"
   inkscape:connector-curvature="0" /><path
   style="fill:#555555;fill-opacity:1;stroke:none"
   d="m 21.622531,41.154823 -1.86499,2.45862 -2.97785,-1.28474 0.638695,-2.8017 z"
   id="path4506-1-7-4-0-9-4"
   inkscape:connector-curvature="0" /><path
   style="fill:#555555;fill-opacity:1;stroke:none"
   d="M 11.952653,33.797303 8.8901112,34.176593 7.7328682,31.14692 10.185602,29.649753 z"
   id="path4506-1-7-4-0-9-4-8"
   inkscape:connector-curvature="0" /><path
   style="fill:#555555;fill-opacity:1;stroke:none"
   d="M 10.153329,28.147969 7.1607462,27.394661 7.1768262,24.151529 10.004887,23.64213 z"
   id="path4506-1-7-4-0-9-4-8-8"
   inkscape:connector-curvature="0" /><path
   style="fill:#555555;fill-opacity:1;stroke:none"
   d="m 10.457634,21.791475 -2.4567898,-1.867408 1.287673,-2.976586 2.8010628,0.64145 z"
   id="path4506-1-7-4-0-9-4-8-8-2"
   inkscape:connector-curvature="0" /><path
   style="fill:#555555;fill-opacity:1;stroke:none"
   d="m 13.014547,16.380023 -1.486845,-2.70413 2.385411,-2.197266 2.299272,1.72359 z"
   id="path4506-1-7-4-0-9-4-8-8-2-4"
   inkscape:connector-curvature="0" /><path
   style="fill:#555555;fill-opacity:1;stroke:none"
   d="m 17.759976,12.234056 -0.391327,-3.0610302 3.025108,-1.169138 1.506792,2.4468332 z"
   id="path4506-1-7-4-0-9-4-8-8-2-4-5"
   inkscape:connector-curvature="0" /><path
   style="fill:#555555;fill-opacity:1;stroke:none"
   d="m 23.321702,10.436487 0.70636,-3.0040132 3.242986,-0.0347 0.553617,2.8197382 z"
   id="path4506-1-7-4-0-9-4-8-8-2-4-5-5"
   inkscape:connector-curvature="0" /><path
   style="fill:#555555;fill-opacity:1;stroke:none"
   d="m 29.597271,10.698148 1.800559,-2.5061982 3.010188,1.207034 -0.565772,2.8173252 z"
   id="path4506-1-7-4-0-9-4-8-8-2-4-5-5-1"
   inkscape:connector-curvature="0" /><path
   style="fill:#555555;fill-opacity:1;stroke:none"
   d="m 34.990411,13.127087 2.59078,-1.676576 2.362361,2.222029 -1.554605,2.416738 z"
   id="path4506-1-7-4-0-9-4-8-8-2-4-5-5-1-7"
   inkscape:connector-curvature="0" /><path
   style="fill:#555555;fill-opacity:1;stroke:none"
   d="m 20.206602,27.716983 -6.875,6 2.96875,3.4375 6.90625,-6 -3,-3.4375 z m -0.15625,1.46875 c 0.184322,-0.02662 0.398659,-0.01427 0.5625,0.125 0.327683,0.27853 0.9375,0.96875 0.9375,0.96875 0,0 0.405054,0.779414 0.09375,1.15625 -0.311299,0.376835 -3.84375,3.4375 -3.84375,3.4375 l -0.1875,-0.15625 3.65625,-3.21875 c 0,0 0.339513,-0.611335 0.09375,-0.90625 -0.245762,-0.294915 -0.96875,-0.96875 -0.96875,-0.96875 0,0 -0.432628,-0.251836 -0.875,0.125 -0.442372,0.376835 -3.53125,3.09375 -3.53125,3.09375 l -0.15625,-0.21875 3.875,-3.34375 c 0,0 0.159428,-0.06713 0.34375,-0.09375 z"
   id="rect4760"
   inkscape:connector-curvature="0" /><path
   style="fill:#555555;fill-opacity:1;stroke:none"
   d="m 25.581602,20.310733 c -3.130857,0 -5.65625,2.525393 -5.65625,5.65625 0,3.130857 2.525393,5.6875 5.65625,5.6875 3.130857,0 5.6875,-2.556643 5.6875,-5.6875 0,-0.668086 -0.131514,-1.2798 -0.34375,-1.875 l -4.34375,3.875 -2.875,-3.375 4.25,-3.78125 c -0.718027,-0.328871 -1.533582,-0.5 -2.375,-0.5 z"
   id="path4780"
   inkscape:connector-curvature="0" /></svg>